<svg width="34" height="34" viewBox="0 0 34 34" fill="none" xmlns="http://www.w3.org/2000/svg">
<path d="M30.8125 13.9792V17.5312C30.8103 19.5031 30.026 21.3936 28.6317 22.7879C27.2373 24.1822 25.3469 24.9665 23.375 24.9687H5.22134L8.18877 22.0013L6.68627 20.4987L3.71877 23.4662L3.42559 23.7593L1.19659 25.9883L6.11212 31.5184L7.70042 30.1066L5.02232 27.0937H23.375C28.6477 27.0937 32.9375 22.8039 32.9375 17.5312V11.8542L30.8125 13.9792Z" fill="black"/>
<path d="M3.1875 17C3.18973 15.0281 3.97404 13.1377 5.36836 11.7434C6.76268 10.349 8.65314 9.56473 10.625 9.5625H28.7787L25.8112 12.53L27.3138 14.0325L30.2812 11.0651L30.5546 10.7917L32.8034 8.5429L27.8879 3.01285L26.2996 4.42465L28.9777 7.4375H10.625C5.35234 7.4375 1.0625 11.7273 1.0625 17V22.6968L3.1875 20.5718V17Z" fill="black"/>
<path d="M6 1.5L27 32" stroke="black" stroke-width="3" stroke-linecap="round"/>
</svg>
