<svg width="35" height="34" viewBox="0 0 35 34" fill="none" xmlns="http://www.w3.org/2000/svg">
<path d="M31.5899 13.9792V17.5312C31.5876 19.5031 30.8033 21.3936 29.409 22.7879C28.0147 24.1822 26.1242 24.9665 24.1524 24.9687H5.99869L8.96612 22.0013L7.46361 20.4987L4.49611 23.4662L4.20293 23.7593L1.97394 25.9883L6.88946 31.5184L8.47777 30.1066L5.79967 27.0937H24.1524C29.425 27.0937 33.7149 22.8039 33.7149 17.5312V11.8542L31.5899 13.9792Z" fill="black"/>
<path d="M3.96484 17C3.96708 15.0281 4.75138 13.1377 6.1457 11.7434C7.54002 10.349 9.43048 9.56473 11.4023 9.5625H29.556L26.5886 12.53L28.0911 14.0325L31.0586 11.0651L31.332 10.7917L33.5808 8.5429L28.6652 3.01285L27.0769 4.42465L29.755 7.4375H11.4023C6.12969 7.4375 1.83984 11.7273 1.83984 17V22.6968L3.96484 20.5718V17Z" fill="black"/>
</svg>
