<svg width="305" height="305" viewBox="0 0 305 305" fill="none" xmlns="http://www.w3.org/2000/svg">
<path d="M180.915 190.997C161.746 206.312 137.441 213.705 112.991 211.659C88.5411 209.613 65.8026 198.283 49.4455 179.995C33.0885 161.708 24.3545 137.851 25.0372 113.325C25.72 88.7995 35.7677 65.4659 53.1168 48.1168C70.4659 30.7677 93.7995 20.72 118.325 20.0372C142.851 19.3545 166.708 28.0885 184.995 44.4455C203.283 60.8026 214.613 83.5411 216.659 107.991C218.705 132.441 211.312 156.746 195.997 175.915L277.872 257.768C279.875 259.771 281 262.488 281 265.32C281 268.153 279.875 270.869 277.872 272.872C275.869 274.875 273.153 276 270.32 276C267.488 276 264.771 274.875 262.768 272.872L180.937 190.997H180.915ZM195.656 115.992C195.656 106.187 193.725 96.478 189.973 87.4194C186.22 78.3607 180.721 70.1298 173.788 63.1966C166.854 56.2634 158.623 50.7637 149.565 47.0115C140.506 43.2593 130.797 41.328 120.992 41.328C111.187 41.328 101.478 43.2593 92.4194 47.0115C83.3607 50.7637 75.1298 56.2634 68.1966 63.1966C61.2634 70.1298 55.7637 78.3607 52.0115 87.4194C48.2593 96.478 46.328 106.187 46.328 115.992C46.328 135.794 54.1944 154.785 68.1966 168.788C82.1988 182.79 101.19 190.656 120.992 190.656C140.794 190.656 159.785 182.79 173.788 168.788C187.79 154.785 195.656 135.794 195.656 115.992Z" fill="#EEEEEE"/>
</svg>
